<?xml version="1.0" encoding="utf-8"?>
<svg width="1024" height="1024" viewBox="0 0 1024 1024" fill="none" xmlns="http://www.w3.org/2000/svg">
  <g>
    <rect width="1024" height="1024" />
    <g id="Group" transform="translate(143 163.923)">
      <path id="Rectangle" d="M103 0L158 0C174.802 0 183.202 0 189.62 3.26981Q191.723 4.3417 193.634 5.72949Q195.544 7.11728 197.213 8.78679Q198.883 10.4563 200.271 12.3664Q201.658 14.2766 202.73 16.3803C206 22.7976 206 31.1984 206 48L206 622C206 638.802 206 647.202 202.73 653.62Q201.658 655.723 200.271 657.634Q198.883 659.544 197.213 661.213Q195.544 662.883 193.634 664.271Q191.723 665.658 189.62 666.73C183.202 670 174.802 670 158 670L48 670C31.1984 670 22.7976 670 16.3803 666.73Q14.2766 665.658 12.3664 664.271Q10.4563 662.883 8.78679 661.213Q7.11728 659.544 5.72949 657.634Q4.3417 655.723 3.26981 653.62C0 647.202 0 638.802 0 622L0 48C0 31.1984 0 22.7976 3.2698 16.3803Q4.3417 14.2766 5.72949 12.3664Q7.11728 10.4563 8.78679 8.7868Q10.4563 7.11728 12.3664 5.72949Q14.2766 4.3417 16.3803 3.26981C22.7976 0 31.1984 0 48 0L103 0Z" fill="#3083FF" transform="translate(0 34.077)" />
      <path id="Rectangle" d="M65 0L120 0C120.95 0 121.424 0 121.847 0.0399399Q122.234 0.0765496 122.617 0.14644Q123 0.216331 123.375 0.318982Q123.75 0.421632 124.115 0.556277Q124.48 0.690921 124.832 0.856556Q125.184 1.02219 125.52 1.21758Q125.857 1.41297 126.175 1.63665Q126.493 1.86034 126.791 2.11065Q127.089 2.36096 127.364 2.63604Q127.639 2.91111 127.889 3.2089Q128.14 3.50668 128.363 3.82495Q128.587 4.14323 128.782 4.47961Q128.978 4.816 129.143 5.16799Q129.309 5.51998 129.444 5.88495Q129.578 6.24992 129.681 6.62515Q129.784 7.00037 129.854 7.38306Q129.923 7.76574 129.96 8.15303C130 8.57557 130 9.05038 130 10L130 10C130 10.9496 130 11.4244 129.96 11.847Q129.923 12.2343 129.854 12.6169Q129.784 12.9996 129.681 13.3749Q129.578 13.7501 129.444 14.1151Q129.309 14.48 129.143 14.832Q128.978 15.184 128.782 15.5204Q128.587 15.8568 128.363 16.175Q128.14 16.4933 127.889 16.7911Q127.639 17.0889 127.364 17.364Q127.089 17.639 126.791 17.8893Q126.493 18.1397 126.175 18.3633Q125.857 18.587 125.52 18.7824Q125.184 18.9778 124.832 19.1434Q124.48 19.3091 124.115 19.4437Q123.75 19.5784 123.375 19.681Q123 19.7837 122.617 19.8536Q122.234 19.9234 121.847 19.9601C121.424 20 120.95 20 120 20L10 20C9.05038 20 8.57557 20 8.15303 19.9601Q7.76574 19.9234 7.38305 19.8536Q7.00037 19.7837 6.62514 19.681Q6.24992 19.5784 5.88495 19.4437Q5.51998 19.3091 5.16799 19.1434Q4.816 18.9778 4.47961 18.7824Q4.14322 18.587 3.82495 18.3633Q3.50668 18.1397 3.2089 17.8893Q2.91111 17.639 2.63604 17.364Q2.36096 17.0889 2.11065 16.7911Q1.86034 16.4933 1.63665 16.175Q1.41297 15.8568 1.21758 15.5204Q1.02219 15.184 0.856556 14.832Q0.690921 14.48 0.556277 14.115Q0.421632 13.7501 0.318982 13.3749Q0.216331 12.9996 0.14644 12.6169Q0.0765496 12.2343 0.0399399 11.847C0 11.4244 0 10.9496 0 10L0 10C0 9.05038 0 8.57557 0.0399437 8.15302Q0.0765529 7.76573 0.146443 7.38305Q0.216334 7.00037 0.318984 6.62514Q0.421634 6.24991 0.556278 5.88495Q0.690923 5.51998 0.856557 5.16799Q1.02219 4.816 1.21758 4.47961Q1.41297 4.14322 1.63665 3.82495Q1.86034 3.50668 2.11065 3.2089Q2.36096 2.91111 2.63604 2.63604Q2.91111 2.36096 3.2089 2.11065Q3.50668 1.86034 3.82495 1.63665Q4.14322 1.41297 4.47961 1.21758Q4.81599 1.02219 5.16798 0.856558Q5.51997 0.690924 5.88494 0.55628Q6.24991 0.421636 6.62514 0.318986Q7.00037 0.216336 7.38305 0.146446Q7.76573 0.0765563 8.15302 0.0399475C8.57557 0 9.05038 0 10 0L65 0Z" fill="#F5F9FF" transform="translate(38 76.077)" />
      <path id="Rectangle" d="M65 0L120 0C120.95 0 121.424 0 121.847 0.0399475Q122.234 0.0765572 122.617 0.146448Q123 0.216338 123.375 0.318988Q123.75 0.421638 124.115 0.556282Q124.48 0.690926 124.832 0.85656Q125.184 1.02219 125.52 1.21758Q125.857 1.41297 126.175 1.63665Q126.493 1.86034 126.791 2.11065Q127.089 2.36096 127.364 2.63603Q127.639 2.91111 127.889 3.20889Q128.14 3.50667 128.363 3.82495Q128.587 4.14322 128.782 4.4796Q128.978 4.81599 129.143 5.16798Q129.309 5.51997 129.444 5.88494Q129.578 6.24992 129.681 6.62514Q129.784 7.00037 129.854 7.38306Q129.923 7.76574 129.96 8.15303C130 8.57558 130 9.05038 130 10L130 10C130 10.9496 130 11.4244 129.96 11.847Q129.923 12.2343 129.854 12.6169Q129.784 12.9996 129.681 13.3749Q129.578 13.7501 129.444 14.1151Q129.309 14.48 129.143 14.832Q128.978 15.184 128.782 15.5204Q128.587 15.8568 128.363 16.175Q128.14 16.4933 127.889 16.7911Q127.639 17.0889 127.364 17.364Q127.089 17.639 126.791 17.8893Q126.493 18.1397 126.175 18.3633Q125.857 18.587 125.52 18.7824Q125.184 18.9778 124.832 19.1434Q124.48 19.3091 124.115 19.4437Q123.75 19.5784 123.375 19.681Q123 19.7837 122.617 19.8535Q122.234 19.9234 121.847 19.9601C121.424 20 120.95 20 120 20L10 20C9.05038 20 8.57557 20 8.15303 19.9601Q7.76574 19.9234 7.38305 19.8535Q7.00037 19.7837 6.62514 19.681Q6.24992 19.5784 5.88495 19.4437Q5.51998 19.3091 5.16799 19.1434Q4.816 18.9778 4.47961 18.7824Q4.14322 18.587 3.82495 18.3633Q3.50668 18.1397 3.2089 17.8893Q2.91111 17.639 2.63604 17.364Q2.36096 17.0889 2.11065 16.7911Q1.86034 16.4933 1.63665 16.175Q1.41297 15.8568 1.21758 15.5204Q1.02219 15.184 0.856556 14.832Q0.690921 14.48 0.556277 14.115Q0.421632 13.7501 0.318982 13.3748Q0.216331 12.9996 0.14644 12.6169Q0.0765496 12.2343 0.0399399 11.847C0 11.4244 0 10.9496 0 10L0 10C0 9.05038 0 8.57558 0.0399437 8.15303Q0.0765529 7.76574 0.146443 7.38306Q0.216334 7.00037 0.318984 6.62514Q0.421634 6.24992 0.556278 5.88494Q0.690923 5.51997 0.856557 5.16798Q1.02219 4.81599 1.21758 4.47961Q1.41297 4.14322 1.63665 3.82495Q1.86034 3.50667 2.11065 3.20889Q2.36096 2.91111 2.63604 2.63603Q2.91111 2.36096 3.2089 2.11065Q3.50668 1.86034 3.82495 1.63665Q4.14322 1.41297 4.47961 1.21758Q4.81599 1.02219 5.16798 0.85656Q5.51997 0.690926 5.88494 0.556282Q6.24991 0.421638 6.62514 0.318988Q7.00037 0.216338 7.38305 0.146448Q7.76573 0.0765572 8.15302 0.0399475C8.57557 0 9.05038 0 10 0L65 0Z" fill="#F5F9FF" transform="translate(38 136.077)" />
      <path id="Rectangle" d="M65 0L120 0C120.95 0 121.424 0 121.847 0.0399475Q122.234 0.0765572 122.617 0.146448Q123 0.216338 123.375 0.318988Q123.75 0.421638 124.115 0.556282Q124.48 0.690926 124.832 0.85656Q125.184 1.02219 125.52 1.21758Q125.857 1.41297 126.175 1.63665Q126.493 1.86034 126.791 2.11065Q127.089 2.36096 127.364 2.63603Q127.639 2.91111 127.889 3.20889Q128.14 3.50667 128.363 3.82495Q128.587 4.14322 128.782 4.4796Q128.978 4.81599 129.143 5.16798Q129.309 5.51997 129.444 5.88494Q129.578 6.24992 129.681 6.62514Q129.784 7.00037 129.854 7.38306Q129.923 7.76574 129.96 8.15303C130 8.57558 130 9.05038 130 10L130 10C130 10.9496 130 11.4244 129.96 11.847Q129.923 12.2343 129.854 12.6169Q129.784 12.9996 129.681 13.3749Q129.578 13.7501 129.444 14.1151Q129.309 14.48 129.143 14.832Q128.978 15.184 128.782 15.5204Q128.587 15.8568 128.363 16.175Q128.14 16.4933 127.889 16.7911Q127.639 17.0889 127.364 17.364Q127.089 17.639 126.791 17.8893Q126.493 18.1397 126.175 18.3633Q125.857 18.587 125.52 18.7824Q125.184 18.9778 124.832 19.1434Q124.48 19.3091 124.115 19.4437Q123.75 19.5784 123.375 19.681Q123 19.7837 122.617 19.8535Q122.234 19.9234 121.847 19.9601C121.424 20 120.95 20 120 20L10 20C9.05038 20 8.57557 20 8.15303 19.9601Q7.76574 19.9234 7.38305 19.8535Q7.00037 19.7837 6.62514 19.681Q6.24992 19.5784 5.88495 19.4437Q5.51998 19.3091 5.16799 19.1434Q4.816 18.9778 4.47961 18.7824Q4.14322 18.587 3.82495 18.3633Q3.50668 18.1397 3.2089 17.8893Q2.91111 17.639 2.63604 17.364Q2.36096 17.0889 2.11065 16.7911Q1.86034 16.4933 1.63665 16.175Q1.41297 15.8568 1.21758 15.5204Q1.02219 15.184 0.856556 14.832Q0.690921 14.48 0.556277 14.115Q0.421632 13.7501 0.318982 13.3748Q0.216331 12.9996 0.14644 12.6169Q0.0765496 12.2343 0.0399399 11.847C0 11.4244 0 10.9496 0 10L0 10C0 9.05038 0 8.57558 0.0399437 8.15303Q0.0765529 7.76574 0.146443 7.38306Q0.216334 7.00037 0.318984 6.62514Q0.421634 6.24992 0.556278 5.88494Q0.690923 5.51997 0.856557 5.16798Q1.02219 4.81599 1.21758 4.47961Q1.41297 4.14322 1.63665 3.82495Q1.86034 3.50667 2.11065 3.20889Q2.36096 2.91111 2.63604 2.63603Q2.91111 2.36096 3.2089 2.11065Q3.50668 1.86034 3.82495 1.63665Q4.14322 1.41297 4.47961 1.21758Q4.81599 1.02219 5.16798 0.85656Q5.51997 0.690926 5.88494 0.556282Q6.24991 0.421638 6.62514 0.318988Q7.00037 0.216338 7.38305 0.146448Q7.76573 0.0765572 8.15302 0.0399475C8.57557 0 9.05038 0 10 0L65 0Z" fill="#F5F9FF" transform="translate(38 196.077)" />
      <path id="Shape" d="M361.025 496.879L404.027 615.024C409.694 630.596 401.668 647.808 386.097 653.475L248.902 703.41C233.33 709.078 216.118 701.052 210.45 685.48L1.81793 112.268C-3.84961 96.6962 4.17665 79.4838 19.7481 73.8162L156.943 23.8813C160.056 22.7483 163.235 22.1625 166.374 22.0749C171.606 20.5486 177.382 18.9457 183.915 17.2184C212.768 9.58951 231.219 1.57259 291.563 0.0768294C426.787 -3.275 529.565 103.501 529.565 231.081C529.565 358.662 487.637 412.301 390.06 462.58C377.715 468.941 361.724 477.192 361.025 496.879Z" fill="#3083FF" fill-rule="evenodd" transform="translate(198 0)" />
      <path id="Oval" d="M0 48.5714C0 21.7462 22.3858 0 50 0C77.6142 0 100 21.7462 100 48.5714C100 75.3967 77.6142 97.1428 50 97.1428C22.3858 97.1428 0 75.3967 0 48.5714Z" fill="#F5F9FF" fill-rule="evenodd" transform="translate(53 553.077)" />
    </g>
  </g>
</svg>