<?xml version="1.0" encoding="iso-8859-1"?>
<svg height="800px" width="800px" version="1.1" id="Layer_1" xmlns="http://www.w3.org/2000/svg" xmlns:xlink="http://www.w3.org/1999/xlink" 
	 viewBox="0 0 512 512" xml:space="preserve">
<polygon style="fill:#0079FF;" points="424.26,180.262 424.26,313.361 256.115,425 256,424.927 86.959,312.684 86.959,179.741 
	256,291.984 "/>
<polygon style="fill:#005FCC;" points="424.26,180.262 424.26,313.361 256.115,425 256,424.927 256,291.984 "/>
<polygon style="fill:#66B3FF;" points="508.968,161.53 256,329.499 3.032,161.53 256,0 "/>
<polygon style="fill:#3399FF;" points="508.968,161.53 256,329.499 256,0 "/>
<path style="fill:#004EA0;" d="M372.233,235.581v221.548h-31.254V252.302l-80.645-53.746c-7.178-4.782-9.116-14.481-4.334-21.669
	c0.094-0.146,0.188-0.281,0.302-0.417c3.021-4.24,7.824-6.542,12.71-6.542c2.98,0,5.99,0.854,8.657,2.625L372.233,235.581z"/>
<path style="fill:#003A7A;" d="M372.233,235.581v221.548h-15.627v-212.87l-100.304-67.79c3.021-4.24,7.824-6.542,12.71-6.542
	c2.98,0,5.99,0.854,8.657,2.625L372.233,235.581z"/>
<polygon style="fill:#002E66;" points="400.361,438.731 400.361,512 369.108,512 369.108,469.984 344.104,469.984 344.104,512 
	312.851,512 312.851,438.731 "/>
<polygon style="fill:#001F4D;" points="400.361,438.731 400.361,512 369.108,512 369.108,469.984 356.606,469.984 356.606,438.731 
	"/>
</svg>
